<?xml version="1.0" encoding="UTF-8"?>
<svg xmlns="http://www.w3.org/2000/svg" xmlns:xlink="http://www.w3.org/1999/xlink" viewBox="0 0 646.22 151.65">
  <defs>
    <style>
      .cls-1 {
        fill: url(#New_Gradient_Swatch_4-2);
        opacity: .76;
      }

      .cls-1, .cls-2, .cls-3, .cls-4, .cls-5, .cls-6, .cls-7, .cls-8, .cls-9 {
        mix-blend-mode: multiply;
      }

      .cls-10 {
        letter-spacing: .02em;
      }

      .cls-11 {
        fill: url(#linear-gradient-2);
      }

      .cls-12 {
        fill: url(#linear-gradient-3);
        opacity: .52;
      }

      .cls-13 {
        letter-spacing: .04em;
      }

      .cls-14 {
        fill: url(#White_Black);
        opacity: .32;
      }

      .cls-14, .cls-15, .cls-16, .cls-17, .cls-18, .cls-19, .cls-20, .cls-21, .cls-22, .cls-23, .cls-24, .cls-25 {
        mix-blend-mode: screen;
      }

      .cls-26 {
        fill: url(#Degradado_sin_nombre_15-2);
      }

      .cls-15 {
        fill: url(#linear-gradient-5);
      }

      .cls-15, .cls-16, .cls-6 {
        opacity: .24;
      }

      .cls-2 {
        fill: #1d71b8;
        font-size: 42.41px;
      }

      .cls-2, .cls-27 {
        font-family: VastinePersonalUse, 'Vastine Personal Use';
      }

      .cls-28 {
        letter-spacing: .24em;
      }

      .cls-29 {
        letter-spacing: .2em;
      }

      .cls-30 {
        letter-spacing: .22em;
      }

      .cls-16 {
        fill: url(#White_Black-2);
      }

      .cls-31 {
        letter-spacing: .24em;
      }

      .cls-32 {
        clip-path: url(#clippath-2);
      }

      .cls-33 {
        fill: url(#Degradado_sin_nombre_15);
      }

      .cls-3 {
        fill: url(#linear-gradient-26);
      }

      .cls-3, .cls-4, .cls-7, .cls-9 {
        opacity: .64;
      }

      .cls-34 {
        isolation: isolate;
      }

      .cls-4 {
        fill: url(#New_Gradient_Swatch_4);
      }

      .cls-35 {
        letter-spacing: .01em;
      }

      .cls-36 {
        letter-spacing: .21em;
      }

      .cls-37 {
        letter-spacing: 0em;
      }

      .cls-17 {
        fill: url(#linear-gradient-20);
        opacity: .12;
      }

      .cls-38 {
        fill: url(#linear-gradient-11);
      }

      .cls-39 {
        letter-spacing: 0em;
      }

      .cls-40 {
        letter-spacing: -.02em;
      }

      .cls-41 {
        clip-path: url(#clippath-1);
      }

      .cls-42 {
        clip-path: url(#clippath-4);
      }

      .cls-43 {
        fill: url(#linear-gradient-10);
      }

      .cls-44 {
        letter-spacing: .2em;
      }

      .cls-18 {
        fill: url(#linear-gradient-15);
        opacity: .39;
      }

      .cls-45 {
        letter-spacing: .19em;
      }

      .cls-46 {
        letter-spacing: .24em;
      }

      .cls-47 {
        letter-spacing: .26em;
      }

      .cls-48 {
        letter-spacing: .23em;
      }

      .cls-49 {
        letter-spacing: .2em;
      }

      .cls-50 {
        letter-spacing: -.16em;
      }

      .cls-51 {
        letter-spacing: .04em;
      }

      .cls-19 {
        fill: url(#White_Black-3);
        opacity: .36;
      }

      .cls-5 {
        fill: url(#linear-gradient-21);
        opacity: .11;
      }

      .cls-20 {
        fill: url(#linear-gradient-16);
      }

      .cls-20, .cls-21 {
        opacity: .46;
      }

      .cls-21 {
        fill: url(#linear-gradient-18);
      }

      .cls-27 {
        fill: #fff;
        font-size: 15.94px;
      }

      .cls-52 {
        fill: #95c11f;
      }

      .cls-53 {
        clip-path: url(#clippath);
      }

      .cls-54 {
        letter-spacing: .2em;
      }

      .cls-22 {
        fill: url(#linear-gradient-6);
        opacity: .26;
      }

      .cls-55 {
        fill: url(#Degradado_sin_nombre_15-5);
      }

      .cls-6 {
        fill: url(#linear-gradient-17);
      }

      .cls-56 {
        clip-path: url(#clippath-3);
      }

      .cls-57 {
        letter-spacing: .18em;
      }

      .cls-58 {
        fill: url(#Degradado_sin_nombre_15-3);
      }

      .cls-59 {
        fill: url(#linear-gradient-24);
      }

      .cls-60 {
        fill: url(#linear-gradient-9);
      }

      .cls-61 {
        fill: url(#linear-gradient-22);
      }

      .cls-7 {
        fill: url(#linear-gradient-14);
      }

      .cls-23 {
        fill: url(#linear-gradient-19);
        opacity: .28;
      }

      .cls-62 {
        letter-spacing: -.18em;
      }

      .cls-63 {
        clip-path: url(#clippath-5);
      }

      .cls-64 {
        letter-spacing: 0em;
      }

      .cls-65 {
        fill: url(#linear-gradient);
      }

      .cls-66 {
        letter-spacing: .14em;
      }

      .cls-8 {
        fill: url(#linear-gradient-7);
        opacity: .69;
      }

      .cls-9 {
        fill: url(#linear-gradient-25);
      }

      .cls-67 {
        letter-spacing: .25em;
      }

      .cls-68 {
        fill: url(#linear-gradient-23);
      }

      .cls-69 {
        fill: url(#linear-gradient-4);
      }

      .cls-70 {
        fill: url(#Degradado_sin_nombre_15-4);
      }

      .cls-24 {
        fill: url(#radial-gradient);
        opacity: .71;
      }

      .cls-71 {
        fill: url(#linear-gradient-8);
      }

      .cls-72 {
        letter-spacing: .19em;
      }

      .cls-25 {
        fill: url(#linear-gradient-13);
        opacity: .34;
      }

      .cls-73 {
        fill: url(#linear-gradient-12);
      }

      .cls-74 {
        letter-spacing: -.04em;
      }
    </style>
    <linearGradient id="Degradado_sin_nombre_15" data-name="Degradado sin nombre 15" x1="316.13" y1="128.3" x2="644.54" y2="128.3" gradientUnits="userSpaceOnUse">
      <stop offset="0" stop-color="#2baab1"/>
      <stop offset="1" stop-color="#36a9e1"/>
    </linearGradient>
    <linearGradient id="Degradado_sin_nombre_15-2" data-name="Degradado sin nombre 15" x1="0" y1="89.31" x2="82.6" y2="89.31" xlink:href="#Degradado_sin_nombre_15"/>
    <linearGradient id="Degradado_sin_nombre_15-3" data-name="Degradado sin nombre 15" x1="195.19" y1="112.95" x2="302.13" y2="112.95" xlink:href="#Degradado_sin_nombre_15"/>
    <linearGradient id="linear-gradient" x1="-168.15" y1="397.67" x2="-103.01" y2="339.64" gradientTransform="translate(120.76 -345.25) rotate(-10.37)" gradientUnits="userSpaceOnUse">
      <stop offset="0" stop-color="#9d9d9d"/>
      <stop offset=".48" stop-color="#c2c0bf"/>
      <stop offset="1" stop-color="#e7e4e1"/>
    </linearGradient>
    <clipPath id="clippath">
      <path class="cls-65" d="M54.54,61.97c19.39-7.59,42.92-17.11,44.61-31.18,0,0-12.68-40.59-54.74-24.14,0,0-25.27,18.26-21.79,41.39l1.08,12.06s6.24,11.49,30.84,1.86Z"/>
    </clipPath>
    <radialGradient id="radial-gradient" cx="-111.31" cy="351.78" fx="-111.31" fy="351.78" r="29.05" gradientTransform="translate(393.88 -164.11) rotate(42.36)" gradientUnits="userSpaceOnUse">
      <stop offset="0" stop-color="#a8a8a8"/>
      <stop offset=".1" stop-color="#848484"/>
      <stop offset=".24" stop-color="#5c5c5c"/>
      <stop offset=".38" stop-color="#3a3a3a"/>
      <stop offset=".53" stop-color="#202020"/>
      <stop offset=".67" stop-color="#0e0e0e"/>
      <stop offset=".83" stop-color="#030303"/>
      <stop offset="1" stop-color="#000"/>
    </radialGradient>
    <linearGradient id="linear-gradient-2" x1="-120.07" y1="414.5" x2="-129.69" y2="381.27" gradientTransform="translate(120.76 -345.25) rotate(-10.37)" gradientUnits="userSpaceOnUse">
      <stop offset="0" stop-color="#9d9d9d"/>
      <stop offset=".43" stop-color="#c3c1c0"/>
      <stop offset=".88" stop-color="#e8e5e2"/>
    </linearGradient>
    <clipPath id="clippath-1">
      <path class="cls-11" d="M103.71,32.46s-2.53-2.91-4.93-2.35c-1.89,10.85-25.44,23.51-45.19,29.91-24.8,8.04-30.01-.63-30.02-.64-.08-.14-2.58,2.7-2.68,2.85-.93,1.3-1.75,2.73-2.37,4.21-.81,1.94-1.2,3.86,.9,5.08,1.98,1.16,4.2,1.87,6.46,2.26,4.91,.85,10.05,.36,14.97-.21,3.5-.41,7.03-.95,10.34-2.21,3.45-1.32,6.67-3.18,9.85-5.04,5.61-3.27,11.2-6.65,16.92-9.7,.58-.31,1.15-.62,1.75-.88,2.55-1.09,29.35-14.63,24.01-23.28Z"/>
    </clipPath>
    <linearGradient id="White_Black" data-name="White, Black" x1="-140.11" y1="411.23" x2="-133.36" y2="388.38" gradientTransform="translate(120.76 -345.25) rotate(-10.37)" gradientUnits="userSpaceOnUse">
      <stop offset="0" stop-color="#fff"/>
      <stop offset="1" stop-color="#000"/>
    </linearGradient>
    <linearGradient id="linear-gradient-3" x1="-237.35" y1="421.04" x2="-88.42" y2="370.78" gradientTransform="translate(120.76 -345.25) rotate(-10.37)" gradientUnits="userSpaceOnUse">
      <stop offset=".35" stop-color="#e8e5e2"/>
      <stop offset="1" stop-color="#000"/>
    </linearGradient>
    <linearGradient id="White_Black-2" data-name="White, Black" x1="-80.21" y1="362.85" x2="-101.48" y2="384.39" xlink:href="#White_Black"/>
    <linearGradient id="linear-gradient-4" x1="-119.2" y1="318.11" x2="-150.52" y2="406.27" gradientTransform="translate(120.76 -345.25) rotate(-10.37)" gradientUnits="userSpaceOnUse">
      <stop offset="0" stop-color="#9d9d9d"/>
      <stop offset=".36" stop-color="#c0bebc"/>
      <stop offset=".77" stop-color="#e5e2de"/>
    </linearGradient>
    <clipPath id="clippath-2">
      <path class="cls-69" d="M86.58,11.58s-27.16-3.04-35.73,17.79c-8.57,20.83-.22,9.05,4.93,12.61,5.16,3.56,10.51,13.25,10.51,13.25,0,0-30.97,18.51-42.73,4.15,0,0-2.41-4.66-1.25-14.52,1.17-9.86,32.59-60.5,64.26-33.28Z"/>
    </clipPath>
    <linearGradient id="linear-gradient-5" x1="-73.33" y1="481.87" x2="-101.46" y2="532.23" gradientTransform="translate(194.69 -461.99) rotate(6.08)" gradientUnits="userSpaceOnUse">
      <stop offset="0" stop-color="#f6f2f7"/>
      <stop offset=".31" stop-color="#000"/>
      <stop offset=".6" stop-color="#f6f2f7"/>
      <stop offset=".99" stop-color="#000"/>
    </linearGradient>
    <linearGradient id="linear-gradient-6" x1="-117.97" y1="345.16" x2="-134.49" y2="386" gradientTransform="translate(120.76 -345.25) rotate(-10.37)" gradientUnits="userSpaceOnUse">
      <stop offset="0" stop-color="#fff"/>
      <stop offset=".31" stop-color="#000"/>
      <stop offset=".6" stop-color="#fff"/>
      <stop offset=".99" stop-color="#000"/>
    </linearGradient>
    <linearGradient id="linear-gradient-7" x1="-148.44" y1="343.37" x2="-153.39" y2="389.62" gradientTransform="translate(120.76 -345.25) rotate(-10.37)" gradientUnits="userSpaceOnUse">
      <stop offset=".25" stop-color="#fff"/>
      <stop offset=".59" stop-color="#e6e3e0"/>
      <stop offset=".87" stop-color="#fff"/>
    </linearGradient>
    <linearGradient id="linear-gradient-8" x1="-101.1" y1="321.35" x2="-100.54" y2="361.68" gradientTransform="translate(120.76 -345.25) rotate(-10.37)" gradientUnits="userSpaceOnUse">
      <stop offset="0" stop-color="#9d9d9d"/>
      <stop offset=".4" stop-color="#c2c0bf"/>
      <stop offset=".84" stop-color="#e7e4e1"/>
    </linearGradient>
    <linearGradient id="linear-gradient-9" x1="-139.13" y1="321.93" x2="-138.57" y2="362.14" xlink:href="#linear-gradient-8"/>
    <linearGradient id="linear-gradient-10" x1="-100.98" y1="327.91" x2="-100.52" y2="361.09" xlink:href="#linear-gradient-8"/>
    <linearGradient id="linear-gradient-11" x1="-127.39" y1="321.77" x2="-126.84" y2="361.98" xlink:href="#linear-gradient-8"/>
    <linearGradient id="linear-gradient-12" x1="-131.89" y1="322.23" x2="-123.17" y2="374.91" gradientTransform="translate(120.76 -345.25) rotate(-10.37)" gradientUnits="userSpaceOnUse">
      <stop offset=".27" stop-color="#9d9d9d"/>
      <stop offset=".54" stop-color="#c2c0bf"/>
      <stop offset=".84" stop-color="#e7e4e1"/>
    </linearGradient>
    <linearGradient id="linear-gradient-13" x1="-125.68" y1="344.25" x2="-140.75" y2="357.68" gradientTransform="translate(120.76 -345.25) rotate(-10.37)" gradientUnits="userSpaceOnUse">
      <stop offset="0" stop-color="#000"/>
      <stop offset=".62" stop-color="#fff"/>
      <stop offset="1" stop-color="#000"/>
    </linearGradient>
    <linearGradient id="linear-gradient-14" x1="-151.97" y1="338.09" x2="-157.92" y2="358.39" gradientTransform="translate(120.76 -345.25) rotate(-10.37)" gradientUnits="userSpaceOnUse">
      <stop offset="0" stop-color="#fff"/>
      <stop offset=".64" stop-color="#9c9c9c"/>
    </linearGradient>
    <linearGradient id="linear-gradient-15" x1="-105.24" y1="349.03" x2="-117.95" y2="361.78" gradientTransform="translate(120.76 -345.25) rotate(-10.37)" gradientUnits="userSpaceOnUse">
      <stop offset=".36" stop-color="#fff"/>
      <stop offset=".49" stop-color="#fcfcfc"/>
      <stop offset=".57" stop-color="#f3f3f3"/>
      <stop offset=".65" stop-color="#e4e4e4"/>
      <stop offset=".71" stop-color="#cecece"/>
      <stop offset=".78" stop-color="#b2b2b2"/>
      <stop offset=".83" stop-color="#909090"/>
      <stop offset=".89" stop-color="#676767"/>
      <stop offset=".95" stop-color="#383838"/>
      <stop offset="1" stop-color="#040404"/>
      <stop offset="1" stop-color="#000"/>
    </linearGradient>
    <linearGradient id="linear-gradient-16" x1="-150.81" y1="335.55" x2="-143.3" y2="341.12" xlink:href="#linear-gradient-15"/>
    <linearGradient id="linear-gradient-17" x1="-141.58" y1="370.83" x2="-95.74" y2="364.91" gradientTransform="translate(120.76 -345.25) rotate(-10.37)" gradientUnits="userSpaceOnUse">
      <stop offset=".09" stop-color="#fff"/>
      <stop offset="1" stop-color="#e3dfdc"/>
    </linearGradient>
    <linearGradient id="linear-gradient-18" x1="-144.96" y1="357.81" x2="-145.24" y2="367.79" xlink:href="#linear-gradient-15"/>
    <linearGradient id="linear-gradient-19" x1="-105.46" y1="345.57" x2="-117.76" y2="376.77" gradientTransform="translate(120.76 -345.25) rotate(-10.37)" gradientUnits="userSpaceOnUse">
      <stop offset="0" stop-color="#f6f2f7"/>
      <stop offset="1" stop-color="#000"/>
    </linearGradient>
    <linearGradient id="White_Black-3" data-name="White, Black" x1="-115.5" y1="354.84" x2="-124.67" y2="368.79" xlink:href="#White_Black"/>
    <linearGradient id="linear-gradient-20" x1="-155.57" y1="395.97" x2="-150.25" y2="374.87" gradientTransform="translate(120.76 -345.25) rotate(-10.37)" gradientUnits="userSpaceOnUse">
      <stop offset="0" stop-color="#000"/>
      <stop offset=".28" stop-color="#fff"/>
      <stop offset=".86" stop-color="#000"/>
    </linearGradient>
    <linearGradient id="linear-gradient-21" x1="-104.78" y1="367.08" x2="-88.26" y2="361.5" gradientTransform="translate(120.76 -345.25) rotate(-10.37)" gradientUnits="userSpaceOnUse">
      <stop offset=".35" stop-color="#fff"/>
      <stop offset="1" stop-color="#000"/>
    </linearGradient>
    <linearGradient id="linear-gradient-22" x1="-107.98" y1="380.81" x2="-83.2" y2="351.35" xlink:href="#linear-gradient"/>
    <linearGradient id="linear-gradient-23" x1="-107.98" y1="380.81" x2="-83.2" y2="351.35" xlink:href="#linear-gradient"/>
    <clipPath id="clippath-3">
      <path class="cls-68" d="M93.48,19.62s1.22-.4,2.94,1.32c1.72,1.71,3.24,9.22,3.24,9.22,0,0-1.08,4.34-5.12,7.41,0,0-3.43-4.34-3.87-9.07-.44-4.73,2.8-8.88,2.8-8.88Z"/>
    </clipPath>
    <linearGradient id="linear-gradient-24" x1="-96.89" y1="349.44" x2="-93.72" y2="369.26" xlink:href="#linear-gradient"/>
    <linearGradient id="linear-gradient-25" x1="-133.58" y1="348.22" x2="-138.81" y2="358.01" xlink:href="#linear-gradient-14"/>
    <linearGradient id="linear-gradient-26" x1="-133.58" y1="348.22" x2="-138.81" y2="358.01" xlink:href="#linear-gradient-14"/>
    <clipPath id="clippath-4">
      <path class="cls-3" d="M48.02,28.55l1.66,.65s2.58-5.38,3.47-5.9l-1.85-.64s-2.12,2.55-3.27,5.9Z"/>
    </clipPath>
    <linearGradient id="Degradado_sin_nombre_15-4" data-name="Degradado sin nombre 15" x1="49.23" y1="25.89" x2="53.82" y2="25.89" xlink:href="#Degradado_sin_nombre_15"/>
    <linearGradient id="New_Gradient_Swatch_4" data-name="New Gradient Swatch 4" x1="-126.17" y1="344.08" x2="-131.31" y2="348.07" gradientTransform="translate(120.76 -345.25) rotate(-10.37)" gradientUnits="userSpaceOnUse">
      <stop offset=".09" stop-color="#fff"/>
      <stop offset=".64" stop-color="#9c9c9c"/>
    </linearGradient>
    <clipPath id="clippath-5">
      <path class="cls-4" d="M52.82,21.52s1.04,.3,1.13,.12,2.53-2.62,3.54-3.17l-1.11-.55s-2.42,1.1-3.56,3.6Z"/>
    </clipPath>
    <linearGradient id="Degradado_sin_nombre_15-5" data-name="Degradado sin nombre 15" x1="53.64" y1="19.6" x2="58.42" y2="19.6" xlink:href="#Degradado_sin_nombre_15"/>
    <linearGradient id="New_Gradient_Swatch_4-2" data-name="New Gradient Swatch 4" x1="-124.14" y1="342.15" x2="-125.96" y2="346.24" xlink:href="#New_Gradient_Swatch_4"/>
  </defs>
  <g class="cls-34">
    <g id="Capa_1" data-name="Capa 1">
      <g>
        <text class="cls-2" transform="translate(246.74 106.56) scale(.96 1)"><tspan class="cls-40" x="0" y="0">O</tspan><tspan class="cls-74" x="41.01" y="0">C</tspan><tspan class="cls-35" x="77.53" y="0">C</tspan><tspan class="cls-51" x="116.13" y="0">U</tspan><tspan class="cls-50" x="154.47" y="0">P</tspan><tspan class="cls-62" x="183.14" y="0">A</tspan><tspan class="cls-13" x="215.68" y="0">T</tspan><tspan class="cls-39" x="253.93" y="0">I</tspan><tspan class="cls-64" x="263.77" y="0">O</tspan><tspan class="cls-10" x="305.59" y="0">N</tspan><tspan x="341.14" y="0">AL</tspan></text>
        <rect class="cls-33" x="316.13" y="119.16" width="328.42" height="18.28"/>
        <text class="cls-27" transform="translate(338.63 134.07) scale(.96 1)"><tspan class="cls-31" x="0" y="0">S</tspan><tspan class="cls-57" x="17.45" y="0">E</tspan><tspan class="cls-36" x="33.2" y="0">C</tspan><tspan class="cls-47" x="50.89" y="0">U</tspan><tspan class="cls-45" x="68.72" y="0">R</tspan><tspan class="cls-48" x="86.41" y="0">I</tspan><tspan class="cls-72" x="93.57" y="0">T</tspan><tspan class="cls-54" x="110.18" y="0">Y </tspan><tspan class="cls-66" x="137.73" y="0">C</tspan><tspan class="cls-49" x="154.21" y="0">O</tspan><tspan class="cls-30" x="173.12" y="0">N</tspan><tspan class="cls-48" x="189.66" y="0">S</tspan><tspan class="cls-46" x="206.9" y="0">U</tspan><tspan class="cls-37" x="224.56" y="0">L</tspan><tspan class="cls-28" x="236.96" y="0">T</tspan><tspan class="cls-67" x="254.52" y="0">I</tspan><tspan class="cls-29" x="262.13" y="0">N</tspan><tspan class="cls-44" x="278.46" y="0">G</tspan></text>
        <g>
          <path class="cls-52" d="M174.28,56.8c.05,12.63-6.23,21.41-16.7,27.64-1.94,1.16-3.99,2.16-6.07,3.04-1.93,.81-1.83,1.59-.44,2.89,2.37,2.23,4.58,4.61,6.92,6.87,1.14,1.1,1.53,2.15,.61,3.62-3.42,5.44-7.21,10.55-12.03,14.88-1.6,1.43-2.68,1.43-4.17-.14-4.33-4.58-8.83-9-13.17-13.56-3.04-3.19-3.43-3.31-7.02-.52-4.83,3.76-7.55,8.69-6.78,14.85,1.1,8.84,9.4,12.88,17.46,12.26,10.3-.79,17.55-6.89,23.9-14.33,5.41-6.34,9.37-13.59,13.15-20.98,8.75-17.11,19.07-33.12,33.2-46.37,15.39-14.44,33.33-22.44,54.8-21.44,15.71,.73,29.63,5.78,41.43,16.38,1.96,1.76,2.54,2.98,.47,5.21-4.55,4.9-8.86,10.04-13.15,15.18-1.57,1.89-2.78,1.9-4.58,.29-5.73-5.13-12.16-9.14-19.78-10.73-15.13-3.16-28.15,1.43-39.67,11.2-10.82,9.18-18.61,20.78-26.18,32.57-6.97,10.86-13.61,21.95-21.96,31.84-10.13,12-22.25,21.09-38.24,23.22-14.43,1.92-28.02-.52-38.94-11.1-13.98-13.55-12.64-38.23,2.53-50.46,2.77-2.23,5.66-4.31,8.9-5.78,2.01-.91,2.01-1.75,.9-3.5-3.89-6.16-6.52-12.8-6.73-20.21-.42-14.69,6.38-24.98,19.64-30.7,11.46-4.94,23.28-5.03,34.66,.43,11.37,5.45,17.03,14.76,17.04,27.43Zm-23.96,.91c.06-4.88-2.51-8.78-7.21-10.24-4.84-1.5-10.44,.28-13.06,4.42-2.8,4.43-2.6,9.19-.74,13.89,3.19,8.05,6.19,8.97,13.48,4.45,4.42-2.75,7.56-6.26,7.53-12.51Z"/>
          <path class="cls-26" d="M56.48,55.02c7.59,0,14.87,.11,22.14-.05,2.86-.06,4,.67,3.98,3.77-.13,17.03,.16,34.07-.14,51.09-.24,13.59-4.56,25.54-16.09,33.89-5.81,4.21-12.48,6.23-19.51,7.06-17.46,2.07-32.73-2.44-45.27-15.21-2.02-2.06-2.17-3.51-.16-5.63,4.4-4.64,8.7-9.39,12.85-14.25,1.71-1.99,2.81-1.75,4.38,.03,2.22,2.53,4.88,4.57,7.69,6.41,5.05,3.33,10.66,4.1,16.44,3.07,5.42-.97,8.86-4.49,10.41-9.75,.93-3.13,1.29-6.34,1.29-9.62-.03-24.71-.03-49.42-.03-74.13,0-4.27,0-4.28,4.25-4.29,6.79-.01,13.59-.02,20.38,.01,.94,0,2.23-.41,2.7,.61,.5,1.09-.78,1.66-1.43,2.31-7.22,7.26-14.47,14.49-21.7,21.74-.74,.75-1.7,1.35-2.19,2.93Z"/>
          <path class="cls-58" d="M221.06,74.59c-2.13,5.77-2.54,11.75-1.97,17.72,2.98,31.56,32.66,40.94,54.02,28.93,3.88-2.18,7.39-4.9,10.67-7.88,1.22-1.1,2.06-1.12,3.21,.06,4.68,4.79,9.39,9.55,14.15,14.26,1.33,1.32,1.3,2.3,0,3.7-14.96,16.09-33.65,22.04-55.07,19.85-21.46-2.2-37.57-12.89-48.42-31.64-3.04-5.26-3.6-9.53,.27-14.93,6.65-9.26,12.32-19.24,19.92-27.83,.76-.86,1.55-1.7,2.33-2.55l.88,.33Z"/>
          <path class="cls-52" d="M178.76,151.45c-1.03,.07-1.56-.55-2.11-1.1-2.03-2.01-3.98-4.09-6.05-6.05-1.35-1.28-1.47-2.25,.04-3.59,4.73-4.18,8.87-8.93,12.61-14.01,1.18-1.61,2.17-2,3.72-.38,3.2,3.34,6.51,6.56,9.79,9.82,.93,.92,1.63,1.79,.12,2.84-5.73,3.99-11.45,8-17.18,11.99-.32,.22-.69,.36-.94,.48Z"/>
        </g>
        <g>
          <g>
            <path class="cls-65" d="M54.54,61.97c19.39-7.59,42.92-17.11,44.61-31.18,0,0-12.68-40.59-54.74-24.14,0,0-25.27,18.26-21.79,41.39l1.08,12.06s6.24,11.49,30.84,1.86Z"/>
            <g class="cls-53">
              <circle class="cls-24" cx="74.6" cy="20.83" r="29.05" transform="translate(12.85 67.58) rotate(-52.73)"/>
            </g>
          </g>
          <g>
            <path class="cls-11" d="M103.71,32.46s-2.53-2.91-4.93-2.35c-1.89,10.85-25.44,23.51-45.19,29.91-24.8,8.04-30.01-.63-30.02-.64-.08-.14-2.58,2.7-2.68,2.85-.93,1.3-1.75,2.73-2.37,4.21-.81,1.94-1.2,3.86,.9,5.08,1.98,1.16,4.2,1.87,6.46,2.26,4.91,.85,10.05,.36,14.97-.21,3.5-.41,7.03-.95,10.34-2.21,3.45-1.32,6.67-3.18,9.85-5.04,5.61-3.27,11.2-6.65,16.92-9.7,.58-.31,1.15-.62,1.75-.88,2.55-1.09,29.35-14.63,24.01-23.28Z"/>
            <g class="cls-41">
              <path class="cls-14" d="M17.9,78.5c-1.8-1.73,27.25-27.37,71.2-27.87,43.95-.5-57.62,40.92-71.2,27.87Z"/>
              <path class="cls-12" d="M17.42,65.5s-1.46,6.52,9.13,7.85c10.58,1.34,22.14-.98,35.06-7.95,12.92-6.98,19.96-11.96,27.49-14.77,7.54-2.8-20.05,24.5-41.21,25.65-21.15,1.16-33.65,.82-32.78-4.27,.87-5.1,2.31-6.51,2.31-6.51Z"/>
              <path class="cls-16" d="M106.92,29.6c-.66-.98-2.01-1.23-2.91-2-.43-.37-.78-.87-1.3-1.09-.79-.34-1.22,.18-1.17,.82,.08,1.05,.38,1.83,.1,2.92-.27,1.06-.8,2.04-1.34,2.98-1.83,3.16-3.97,6.19-6.76,8.54-.97,.82-2.01,1.54-2.98,2.35-.88,.72-1.7,1.51-2.47,2.35-.21,.23-.42,.48-.45,.79-.03,.35,.18,.68,.39,.97,.27,.38,.56,.77,.98,.95,.71,.29,1.5-.11,2.15-.52,2.78-1.72,5.45-3.63,7.97-5.72,.95-.78,1.88-1.6,2.66-2.54,.52-.63,.98-1.32,1.53-1.94,.79-.88,1.76-1.6,2.46-2.56,.7-.96,1.09-2.12,1.36-3.29,.24-1.01,.37-2.16-.21-3.01Z"/>
            </g>
          </g>
          <g>
            <path class="cls-69" d="M86.58,11.58s-27.16-3.04-35.73,17.79c-8.57,20.83-.22,9.05,4.93,12.61,5.16,3.56,10.51,13.25,10.51,13.25,0,0-30.97,18.51-42.73,4.15,0,0-2.41-4.66-1.25-14.52,1.17-9.86,32.59-60.5,64.26-33.28Z"/>
            <g class="cls-32">
              <path class="cls-15" d="M15.14,36.91c-.21,1.12-.27,2.48,1.15,3.22,.72,.38,1.65,.48,2.53,.58,7.12,.8,14.17,2.15,20.96,3.99,.47,.13,.96,.27,1.32,.52,.56,.39,.66,.96,.73,1.47,.77,5.37,2.57,10.74,5.34,15.94,.52,.98,1.13,2.01,2.35,2.7,.94,.54,2.14,.81,3.31,1.06,3.97,.84,7.99,1.54,12.03,2.09,3.42,.46,7.06,.81,10.1-.05,2.84-.8,4.73-2.53,6.19-4.3,3.01-3.65,4.77-7.99,3.28-12.28-.9-2.6-2.93-5.03-4.93-7.41-1.81-2.16-3.62-4.32-5.43-6.47-1.07-1.27-2.17-2.63-2.08-4.02,.08-1.24,1.12-2.31,2.22-3.26,4.58-3.99,10.8-7.12,17.93-9.02,.95-.25,1.95-.51,2.57-1.03,.62-.53,.66-1.43-.21-1.88-.37-.2-.85-.27-1.3-.35-3.75-.61-7.49-1.21-11.24-1.82-.45-.93,1.34-1.46,2.76-1.57,4.73-.35,9.62-.21,14.42,.42,2.84,.37,5.69,.92,8.52,.89,2.84-.03,5.76-.75,7.02-2.35,1.63-2.08-.18-4.93-3.13-6.58-2.95-1.64-6.74-2.36-10.39-2.98-7.04-1.2-14.18-2.24-21.31-2.42-7.25-.19-14.35,.52-21.39,1.27-5.99,.64-11.98,1.32-17.74,2.44-5.67,1.11-11.08,2.63-16.47,4.16-1.45,.41-2.95,.84-4,1.6-1.76,1.27-.95,3.21-1.23,4.84-.4,2.31-.87,4.61-1.31,6.92-.86,4.56-1.73,9.12-2.59,13.68Z"/>
              <path class="cls-22" d="M87.02,11.73S52.59,2.92,43.42,36.49c0,0-3.36,7.72,1.92,8.52,5.28,.8,9.02-8.26,20.39,11.48,0,0,3.74,3.96,1.69-2.57-2.05-6.53,19.6-42.19,19.6-42.19Z"/>
            </g>
          </g>
          <path class="cls-8" d="M25.63,45.83l1.25,10.04,13.97,4.29s11.47-1.12,11.57-1.5-9.73-6.66-10.42-13.51c-.7-6.85,2.11-15.09,2.11-15.09,0,0-6.86-3.37-6.96-3.17-.1,.2-5.83,5.16-5.82,5.77,.02,.62-6.33,8.13-5.7,13.17Z"/>
          <path class="cls-71" d="M83.04,8.6s-.02,0-.04,.01c.04,.01,.05,.02,.05,.02,0,0-.01-.02-.02-.03Z"/>
          <path class="cls-60" d="M49.18,7.91c4.67-1.43,8.94-2.34,12.84-2.79,3.31-.38,2.89-5.32-.44-5.12-5.7,.35-12.18,2.03-19.1,5.5-19.62,9.85-15.53,27.77-12.99,32.9,1.53,3.09,3.2,3.61,5.28,.99,.36-.45,.55-1.01,.55-1.59,0-6.25,1.03-25.98,13.86-29.9Z"/>
          <path class="cls-43" d="M83.08,8.59s-.05-.03-.08-.04c.01,.02,.02,.04,.03,.06,.03,0,.04-.01,.04-.01Z"/>
          <path class="cls-38" d="M83,8.54c-7.58-4.45-18.59-5.29-33.83-.63-13.46,4.12-13.93,25.65-13.85,30.73,2.13-3.13,4.69-9.38,7.94-19.26C49.94-.9,81.51,8.17,83,8.61c.01,0,.03,0,.04-.01-.01-.02-.02-.04-.03-.06Z"/>
          <path class="cls-73" d="M82.97,8.6c-5.04-3.28-11.03-4.82-17.04-4.63-2.17,.07-4.33,.31-6.47,.69-3.33,.58-6.72,1.33-9.77,2.84-.12,.06-.25,.13-.37,.19-2.34,1.22-4.21,2.98-5.81,5.06-2.86,3.73-4.7,8.21-6,12.7-1.05,3.64-1.81,7.42-2.1,11.2-.05,.66-.09,1.32-.08,1.99,0-.33,.72-1.14,.89-1.45,.35-.62,.67-1.25,.99-1.89,.68-1.39,1.28-2.8,1.86-4.24,1.22-3.02,2.34-6.07,3.36-9.16,.94-2.83,1.88-5.55,3.77-7.9,1.92-2.38,4.42-4.25,7.21-5.48,.42-.19,.85-.36,1.29-.52,2.64-.96,5.43-1.46,8.23-1.66,3.42-.24,6.93-.1,10.34,.31,1.62,.2,3.24,.46,4.84,.78,.84,.17,1.68,.36,2.52,.56,.68,.17,1.81,.25,2.4,.64-.01,0-.03-.02-.04-.03Z"/>
          <path class="cls-25" d="M82.97,8.6c-5.04-3.28-11.03-4.82-17.04-4.63-2.17,.07-4.33,.31-6.47,.69-3.33,.58-6.72,1.33-9.77,2.84-.12,.06-.25,.13-.37,.19-2.34,1.22-4.21,2.98-5.81,5.06-2.86,3.73-4.7,8.21-6,12.7-1.05,3.64-1.81,7.42-2.1,11.2-.05,.66-.09,1.32-.08,1.99,0-.33,.72-1.14,.89-1.45,.35-.62,.67-1.25,.99-1.89,.68-1.39,1.28-2.8,1.86-4.24,1.22-3.02,2.34-6.07,3.36-9.16,.94-2.83,1.88-5.55,3.77-7.9,1.92-2.38,4.42-4.25,7.21-5.48,.42-.19,.85-.36,1.29-.52,2.64-.96,5.43-1.46,8.23-1.66,3.42-.24,6.93-.1,10.34,.31,1.62,.2,3.24,.46,4.84,.78,.84,.17,1.68,.36,2.52,.56,.68,.17,1.81,.25,2.4,.64-.01,0-.03-.02-.04-.03Z"/>
          <path class="cls-7" d="M30.04,33.14s-4.57-12.79,4.71-22.25c0,0-8.09,8.5-3.49,21.67,.1,.29,.06,.62-.13,.85-.21,.25-.55,.38-1.08-.27Z"/>
          <path class="cls-18" d="M66.7,28.51l7.84-10.1s5.14,.53,6.69,4.93c0,0-7.81,7.38-8.08,8.38l-6.44-3.21Z"/>
          <path class="cls-20" d="M35.99,24.15c.04-.33-.26-11.76,6.74-15.2l5.34-1.4s-8.77,3.99-11.57,18.18l-.51-1.57Z"/>
          <path class="cls-6" d="M58.11,30.5c.15-.54,.35-1.14,.85-1.4,.45-.23,.99-.09,1.46,.08,1.64,.58,3.14,1.54,4.37,2.78,.58,.58,1.15,1.26,1.95,1.44,.38,.09,.78,.05,1.17,0,4.44-.54,8.83-2.27,13.26-1.65,.57,.08,1.16,.21,1.62,.55,.54,.41,.84,1.06,1.1,1.69,.41,.98,.78,1.97,1.12,2.98,.1,.3,.2,.62,.14,.94-.06,.31-.27,.58-.48,.82-1.67,1.87-4.01,2.97-6.07,4.39-2.74,1.89-5.01,4.37-7.64,6.4-1.7,1.32-3.9,2.49-5.92,1.73-.16-.06-.33-.14-.45-.27-.14-.15-.2-.36-.25-.55-.38-1.51-.26-3.14,.32-4.58,.52-1.28,1.42-2.54,1.21-3.9-1.13,0-2.24,.4-3.13,1.09-.89,.7-1.52,1.67-2.35,2.43-.83,.76-2.02,1.33-3.08,.95-.82-.3-1.41-.97-2.31-1.07-.11-2.28,.88-5.08,1.35-7.33,.52-2.52,1.09-5.03,1.76-7.51Z"/>
          <path class="cls-21" d="M44.85,32.1s-8.07,13,1.1,12.96c0,0-6.14-1.7-1.1-12.96Z"/>
          <path class="cls-23" d="M87.49,19.66c-4.2-5.61-13.07-.09-16.63,.3-3.56,.39-5.13-2.99-9.99-.79-4.87,2.2-5.69,17.17-5.69,17.17,0,0,3.47,1.62,4.98,6.09,1.5,4.47,6.14,5.68,10.75,4.74,4.6-.94,4.23-4.77,10.6-10.35,6.37-5.58,11.52-1.26,13.71-3.59,2.19-2.33-3.52-7.96-7.72-13.57Z"/>
          <polygon class="cls-19" points="64.81 33.57 68.78 35.81 70.37 33 65.97 29.71 64.81 33.57"/>
          <path class="cls-17" d="M22.36,44.93s23.53,11.14,32.44,10.81l4.06-2.31-.4,5.87s-20.14,7.54-27.51,3.23c-7.37-4.31-8.5-7.2-8.5-7.2,0,0-1.05-4.04-.09-10.4Z"/>
          <path class="cls-5" d="M93.5,20s-3.32,3.98-3.86,7.12,4.33,11.23,4.33,11.23c0,0,2.61-2.36,3.31-3.24,.7-.88-3.78-15.11-3.78-15.11Z"/>
          <g>
            <path class="cls-61" d="M93.48,19.62s1.22-.4,2.94,1.32c1.72,1.71,3.24,9.22,3.24,9.22,0,0-1.08,4.34-5.12,7.41,0,0-3.43-4.34-3.87-9.07-.44-4.73,2.8-8.88,2.8-8.88Z"/>
            <g class="cls-56">
              <path class="cls-59" d="M94.56,18.99c1.25-.27-6.56,7.09,2.66,18.1l-5.31,3.72-2.82-13.29s-.75-7.16,5.47-8.53Z"/>
            </g>
          </g>
          <g>
            <path class="cls-9" d="M48.02,28.55l1.66,.65s2.58-5.38,3.47-5.9l-1.85-.64s-2.12,2.55-3.27,5.9Z"/>
            <g class="cls-42">
              <path class="cls-70" d="M50.87,22.47c.43,.18,1.17,1.39,1.17,1.39l-2.8,5.42,.72,.16s3.9-6.37,3.87-6.4-2.88-.72-2.88-.72l-.07,.14Z"/>
            </g>
          </g>
          <g>
            <path class="cls-4" d="M52.82,21.52s1.04,.3,1.13,.12,2.53-2.62,3.54-3.17l-1.11-.55s-2.42,1.1-3.56,3.6Z"/>
            <g class="cls-63">
              <path class="cls-55" d="M54.81,18.64c.54-.1,1.93-.16,1.93-.16l-3.11,3.25,.6,.38,4.18-3.81-1.17-1.22-2.43,1.56Z"/>
            </g>
          </g>
          <path class="cls-1" d="M57.95,16.82l.69,.53,2.63-1.56-.65-.67s-2.37,1.15-2.67,1.7Z"/>
          <g>
            <path class="cls-52" d="M45.08,68.47c.39-.05,.79-.05,1.19-.03,.2,.01,.4,.03,.59,.06l.3,.04s.1,.02,.15,.03l.15,.03s.1,.02,.15,.03l.15,.03c.1,.02,.19,.04,.29,.07,.1,.03,.19,.05,.29,.08l.07,.02,.07,.02,.14,.05c.38,.13,.74,.29,1.08,.49v.02s-.28-.11-.28-.11c-.09-.04-.18-.07-.28-.1l-.28-.1s-.05-.02-.07-.02l-.07-.02-.14-.04-.14-.04-.07-.02-.07-.02-.29-.08s-.05-.01-.07-.02l-.07-.02-.14-.03-.14-.03s-.1-.02-.14-.03c-.39-.08-.78-.14-1.17-.18-.39-.04-.79-.07-1.18-.06v-.02Z"/>
            <path class="cls-52" d="M46.14,66.98c.45-.06,.91-.05,1.37-.03,.23,.01,.45,.03,.68,.06l.34,.05c.06,0,.11,.02,.17,.03l.17,.03c.06,.01,.11,.02,.17,.03l.17,.04c.11,.02,.22,.05,.33,.08,.11,.03,.22,.06,.33,.09l.08,.02,.08,.03,.16,.06c.43,.15,.85,.34,1.24,.57v.02s-.32-.12-.32-.12c-.11-.04-.21-.08-.32-.12l-.32-.11s-.05-.02-.08-.03l-.08-.02-.16-.05-.16-.05-.08-.02-.08-.02-.33-.09s-.05-.01-.08-.02l-.08-.02-.17-.04-.17-.04c-.06-.01-.11-.02-.17-.03-.44-.09-.89-.16-1.34-.21-.45-.05-.9-.08-1.35-.07v-.02Z"/>
            <path class="cls-52" d="M47.28,65.34c.59-.07,1.19-.07,1.78-.04,.3,.02,.59,.04,.89,.08l.44,.06c.07,.01,.15,.02,.22,.04l.22,.04c.07,.01,.15,.03,.22,.04l.22,.05c.15,.03,.29,.06,.43,.1,.14,.04,.29,.08,.43,.12l.11,.03,.11,.04,.21,.07c.56,.19,1.11,.44,1.62,.74v.02s-.42-.16-.42-.16c-.14-.05-.27-.11-.41-.15l-.42-.14s-.07-.02-.1-.04l-.11-.03-.21-.06-.21-.06-.11-.03-.11-.03-.43-.11s-.07-.02-.11-.03l-.11-.02-.22-.05-.22-.05c-.07-.02-.14-.03-.22-.04-.58-.12-1.16-.2-1.74-.27-.58-.06-1.17-.1-1.76-.09v-.03Z"/>
            <path class="cls-52" d="M48.9,63.85c.7-.09,1.41-.08,2.12-.04,.35,.02,.71,.05,1.06,.1l.53,.07c.09,.01,.17,.03,.26,.04l.26,.05c.09,.02,.17,.03,.26,.05l.26,.06c.17,.04,.35,.07,.52,.12,.17,.05,.34,.1,.51,.14l.13,.04,.13,.04,.25,.09c.67,.23,1.32,.52,1.93,.88v.03s-.5-.19-.5-.19c-.16-.06-.33-.13-.49-.18l-.5-.17s-.08-.03-.12-.04l-.13-.04-.25-.08-.25-.08-.13-.04-.13-.03-.51-.13s-.08-.02-.13-.03l-.13-.03-.26-.06-.26-.06c-.09-.02-.17-.03-.26-.05-.69-.14-1.38-.24-2.08-.32-.7-.07-1.4-.12-2.1-.11v-.03Z"/>
          </g>
          <g>
            <path class="cls-52" d="M20.01,67.26c.04-.22,.06-.45,.06-.68,0-.11,0-.23,0-.34v-.17s-.02-.06-.02-.08v-.08s-.02-.06-.02-.08v-.08c-.02-.06-.03-.11-.04-.17-.01-.06-.02-.11-.03-.17v-.04s-.02-.04-.02-.04l-.02-.08c-.06-.22-.14-.43-.24-.64h0s.05,.16,.05,.16c.02,.05,.03,.11,.05,.16l.04,.16s0,.03,.01,.04v.04s.03,.08,.03,.08l.02,.08v.04s.02,.04,.02,.04l.03,.17s0,.03,0,.04v.04s.02,.08,.02,.08v.08s.02,.06,.02,.08c.03,.22,.05,.45,.06,.67,0,.22,0,.45-.01,.67h.01Z"/>
            <path class="cls-52" d="M20.89,66.71c.05-.26,.07-.52,.07-.78,0-.13,0-.26,0-.39v-.19s-.02-.06-.02-.1v-.1s-.02-.06-.02-.1v-.1c-.02-.06-.03-.13-.05-.19-.01-.06-.03-.13-.04-.19v-.05s-.02-.05-.02-.05l-.03-.09c-.07-.25-.16-.5-.28-.73h-.01s.06,.19,.06,.19c.02,.06,.04,.12,.05,.19l.05,.19s0,.03,.01,.05v.05s.03,.09,.03,.09l.02,.09v.05s.02,.05,.02,.05l.04,.19s0,.03,0,.05v.05s.02,.1,.02,.1v.1s.02,.06,.03,.1c.03,.26,.06,.51,.07,.77,0,.26,0,.52-.01,.77h.01Z"/>
            <path class="cls-52" d="M21.87,66.13c.07-.33,.09-.67,.09-1.01,0-.17,0-.34-.01-.51l-.02-.25s0-.08-.01-.13v-.13s-.02-.08-.03-.13l-.02-.13c-.01-.08-.02-.17-.04-.25-.02-.08-.03-.17-.05-.25v-.06s-.03-.06-.03-.06l-.03-.12c-.09-.33-.21-.65-.36-.95h-.01s.08,.24,.08,.24c.02,.08,.05,.16,.07,.24l.07,.24s.01,.04,.02,.06v.06s.04,.12,.04,.12l.03,.12v.06s.03,.06,.03,.06l.05,.25s0,.04,.01,.06v.06s.03,.12,.03,.12l.02,.12s.01,.08,.02,.12c.05,.33,.07,.67,.08,1,.01,.33,.01,.67-.02,1h.01Z"/>
            <path class="cls-52" d="M22.78,65.26c.08-.4,.1-.8,.11-1.2,0-.2,0-.4-.02-.61l-.02-.3c0-.05,0-.1-.02-.15l-.02-.15c0-.05-.01-.1-.02-.15l-.02-.15c-.02-.1-.03-.2-.05-.3-.02-.1-.04-.2-.06-.3l-.02-.07-.02-.07-.04-.15c-.1-.39-.25-.77-.43-1.13h-.02s.09,.29,.09,.29c.03,.1,.06,.19,.09,.29l.08,.29s.01,.05,.02,.07l.02,.07,.03,.15,.03,.15,.02,.07v.07s.07,.29,.07,.29c0,.02,0,.05,.01,.07v.07s.04,.15,.04,.15l.02,.15s.01,.1,.02,.15c.05,.4,.09,.8,.1,1.2,.01,.4,.01,.8-.02,1.2h.02Z"/>
          </g>
        </g>
      </g>
    </g>
  </g>
</svg>