<?xml version="1.0" encoding="UTF-8"?>
<!DOCTYPE svg PUBLIC "-//W3C//DTD SVG 1.0//EN" "http://www.w3.org/TR/2001/REC-SVG-20010904/DTD/svg10.dtd">
<!-- Creator: CorelDRAW 2021 (64-Bit) -->
<svg xmlns="http://www.w3.org/2000/svg" xml:space="preserve" width="2686px" height="632px" version="1.0" style="shape-rendering:geometricPrecision; text-rendering:geometricPrecision; image-rendering:optimizeQuality; fill-rule:evenodd; clip-rule:evenodd"
viewBox="0 0 2255.8 530.75"
 xmlns:xlink="http://www.w3.org/1999/xlink"
 xmlns:xodm="http://www.corel.com/coreldraw/odm/2003">
 <defs>
  <style type="text/css">
   <![CDATA[
    .fil0 {fill:#1D71B8;fill-rule:nonzero}
    .fil3 {fill:#95C11F;fill-rule:nonzero}
    .fil2 {fill:white;fill-rule:nonzero}
    .fil1 {fill:url(#id0)}
    .fil11 {fill:url(#id1)}
    .fil15 {fill:url(#id2)}
    .fil4 {fill:url(#id3)}
    .fil5 {fill:url(#id4)}
    .fil13 {fill:url(#id5)}
    .fil8 {fill:url(#id6)}
    .fil9 {fill:url(#id7)}
    .fil7 {fill:url(#id8)}
    .fil14 {fill:url(#id9)}
    .fil12 {fill:url(#id10)}
    .fil10 {fill:url(#id11)}
    .fil6 {fill:url(#id12)}
   ]]>
  </style>
  <linearGradient id="id0" gradientUnits="userSpaceOnUse" x1="1106.39" y1="449.02" x2="2255.8" y2="449.02">
   <stop offset="0" style="stop-opacity:1; stop-color:#2BAAB1"/>
   <stop offset="1" style="stop-opacity:1; stop-color:#36A9E1"/>
  </linearGradient>
  <linearGradient id="id1" gradientUnits="userSpaceOnUse" x1="281.6" y1="-15.82" x2="304.08" y2="98.14">
   <stop offset="0" style="stop-opacity:1; stop-color:#9D9D9D"/>
   <stop offset="0.396078" style="stop-opacity:1; stop-color:#C2C0BF"/>
   <stop offset="0.839216" style="stop-opacity:1; stop-color:#E7E4E1"/>
   <stop offset="1" style="stop-opacity:1; stop-color:#E7E4E1"/>
  </linearGradient>
  <linearGradient id="id2" gradientUnits="userSpaceOnUse" x1="311.6" y1="55.73" x2="333.03" y2="121.98">
   <stop offset="0" style="stop-opacity:1; stop-color:#9D9D9D"/>
   <stop offset="0.470588" style="stop-opacity:1; stop-color:#C2C0BF"/>
   <stop offset="1" style="stop-opacity:1; stop-color:#E7E4E1"/>
  </linearGradient>
  <linearGradient id="id3" gradientUnits="userSpaceOnUse" xlink:href="#id0" x1="1.99" y1="309.84" x2="288.53" y2="309.84">
  </linearGradient>
  <linearGradient id="id4" gradientUnits="userSpaceOnUse" xlink:href="#id0" x1="687.09" y1="392.3" x2="1056.22" y2="392.3">
  </linearGradient>
  <linearGradient id="id5" gradientUnits="userSpaceOnUse" x1="171.65" y1="-15.9" x2="234.85" y2="159.97">
   <stop offset="0" style="stop-opacity:1; stop-color:#9D9D9D"/>
   <stop offset="0.270588" style="stop-opacity:1; stop-color:#9D9D9D"/>
   <stop offset="0.537255" style="stop-opacity:1; stop-color:#C2C0BF"/>
   <stop offset="0.839216" style="stop-opacity:1; stop-color:#E7E4E1"/>
   <stop offset="1" style="stop-opacity:1; stop-color:#E7E4E1"/>
  </linearGradient>
  <linearGradient id="id6" gradientUnits="userSpaceOnUse" x1="213.86" y1="-31.62" x2="162.27" y2="250.59">
   <stop offset="0" style="stop-opacity:1; stop-color:#9D9D9D"/>
   <stop offset="0.360784" style="stop-opacity:1; stop-color:#C1BFBD"/>
   <stop offset="0.768627" style="stop-opacity:1; stop-color:#E5E2DE"/>
   <stop offset="1" style="stop-opacity:1; stop-color:#E5E2DE"/>
  </linearGradient>
  <linearGradient id="id7" gradientUnits="userSpaceOnUse" xlink:href="#id1" x1="277.07" y1="-38.32" x2="304.4" y2="100.16">
  </linearGradient>
  <linearGradient id="id8" gradientUnits="userSpaceOnUse" x1="260.5" y1="292.67" x2="209.5" y2="185.27">
   <stop offset="0" style="stop-opacity:1; stop-color:#9D9D9D"/>
   <stop offset="0.411765" style="stop-opacity:1; stop-color:#C2C1BF"/>
   <stop offset="0.878431" style="stop-opacity:1; stop-color:#E8E5E2"/>
   <stop offset="1" style="stop-opacity:1; stop-color:#E8E5E2"/>
  </linearGradient>
  <linearGradient id="id9" gradientUnits="userSpaceOnUse" xlink:href="#id2" x1="293.3" y1="170.73" x2="357.21" y2="53.7">
  </linearGradient>
  <linearGradient id="id10" gradientUnits="userSpaceOnUse" xlink:href="#id1" x1="186.97" y1="2.06" x2="214.18" y2="120.29">
  </linearGradient>
  <linearGradient id="id11" gradientUnits="userSpaceOnUse" xlink:href="#id1" x1="153.58" y1="-12.08" x2="177.35" y2="122.95">
  </linearGradient>
  <linearGradient id="id12" gradientUnits="userSpaceOnUse" xlink:href="#id2" x1="104.27" y1="245.08" x2="284.55" y2="24.49">
  </linearGradient>
 </defs>
 <g id="Capa_x0020_1">
  <metadata id="CorelCorpID_0Corel-Layer"/>
  <path class="fil0" d="M945.81 267.85l-23.03 0c-27.9,0 -50.65,23.6 -50.65,52.55 0,28.94 22.75,52.55 50.65,52.55l23.03 0c27.9,0 50.64,-23.61 50.64,-52.55 0,-28.95 -22.74,-52.55 -50.64,-52.55zm0 86.84l-23.03 0c-18.17,0 -33.05,-15.44 -33.05,-34.29 0,-18.85 14.88,-34.29 33.05,-34.29l23.03 0c18.17,0 33.05,15.44 33.05,34.29 0,18.85 -14.88,34.29 -33.05,34.29zm65.73 -34.89c0,29.54 22.32,53.15 51.22,53.15l22.03 0c15.31,0 29.62,-8.17 38.05,-17.52l-11.87 -12.91c-6.58,6.82 -16.02,12.02 -26.32,12.02l-22.32 0c-19.46,0 -33.19,-16.63 -33.19,-34.14 0,-21.53 17.74,-34.29 33.05,-34.29l22.46 0c7.58,0 19.45,4.3 26.18,12.02l11.87 -12.77c-8.72,-9.79 -22.46,-17.51 -38.2,-17.51l-22.17 0c-27.61,0 -50.79,23.3 -50.79,51.95zm124.25 0c0,29.54 22.32,53.15 51.22,53.15l22.03 0c15.31,0 29.61,-8.17 38.05,-17.52l-11.87 -12.91c-6.58,6.82 -16.02,12.02 -26.32,12.02l-22.32 0c-19.46,0 -33.19,-16.63 -33.19,-34.14 0,-21.53 17.74,-34.29 33.04,-34.29l22.47 0c7.58,0 19.45,4.3 26.18,12.02l11.87 -12.77c-8.73,-9.79 -22.46,-17.51 -38.2,-17.51l-22.17 0c-27.61,0 -50.79,23.3 -50.79,51.95zm238.12 -50.76l-17.88 0 0 70.21c0,8.31 -6.44,15.14 -14.45,15.14l-43.63 0c-7.58,0 -14.45,-6.23 -14.45,-15.14l0 -70.21 -17.88 0 0 70.36c0,18.7 14.59,33.55 32.47,33.55l43.49 0c17.88,0 32.33,-15 32.33,-33.55l0 -70.36zm22.11 0l0 103.91 17.88 0 0 -34 53.5 0c18.46,0 33.77,-15.73 33.77,-34.73 0,-19.45 -15.17,-35.18 -33.91,-35.18l-71.24 0zm17.88 18.55l53.36 0c8.73,0 15.88,7.42 15.88,16.63 0,8.76 -7.15,16.18 -15.74,16.18l-53.5 0 0 -32.81zm293.63 85.36l17.74 0 0 -103.91 -17.74 0 0 103.91zm109.37 -105.1l-23.04 0c-27.89,0 -50.64,23.6 -50.64,52.55 0,28.94 22.75,52.55 50.64,52.55l23.04 0c27.89,0 50.64,-23.61 50.64,-52.55 0,-28.95 -22.75,-52.55 -50.64,-52.55zm0 86.84l-23.04 0c-18.17,0 -33.04,-15.44 -33.04,-34.29 0,-18.85 14.87,-34.29 33.04,-34.29l23.04 0c18.16,0 33.04,15.44 33.04,34.29 0,18.85 -14.88,34.29 -33.04,34.29zm84.9 18.26l0 -74.22 70.39 74.22 14.73 0 0 -103.91 -17.88 0 0 74.22 -70.24 -74.22 -14.88 0 0 103.91 17.88 0zm119.38 0l11.16 -20.19 65.95 -0.15 11.16 20.34 20.75 0c-19.17,-34.59 -38.49,-69.33 -57.51,-103.91l-14.6 0c-19.17,34.58 -38.34,69.32 -57.51,103.91l20.6 0zm21.46 -38.75l22.75 -41.12 22.75 41.12 -45.5 0zm116.52 -65.16l-17.88 0 0 103.91 97.86 0 0 -18.56 -79.98 0 0 -85.35zm-650.48 103.91l11.15 -20.19 65.95 -0.15 11.16 20.34 20.75 0c-19.17,-34.59 -38.48,-69.33 -57.51,-103.91l-14.59 0c-19.17,34.58 -38.34,69.32 -57.51,103.91l20.6 0zm21.45 -38.75l22.75 -41.12 22.75 41.12 -45.5 0zm110.37 38.75l0 -85.36 45.21 0 0 -18.55 -108.3 0 0 18.55 45.21 0 0 85.36 17.88 0z"/>
  <polygon class="fil1" points="1106.39,481 2255.8,481 2255.8,417.03 1106.39,417.03 "/>
  <path class="fil2" d="M1228.53 441.68c0,-6.36 -5,-11.49 -11.07,-11.49l-18.55 0c-6.07,0 -11.07,5.19 -11.07,11.49 0,3.07 1.18,5.91 3.12,7.98l0.27 0.28c1.99,2.06 4.89,3.23 7.68,3.23l18.55 0c2.37,0 4.35,2.01 4.35,4.52 0,2.57 -1.93,4.57 -4.4,4.57l-18.5 0c-2.47,0 -4.35,-2.12 -4.35,-4.51l-6.72 0c0,6.35 5.05,11.49 11.13,11.49l18.49 0c6.13,0 11.07,-5.19 11.07,-11.49 0,-6.31 -5,-11.55 -11.07,-11.55l-18.55 0c-2.42,0 -4.35,-2.01 -4.35,-4.52 0,-2.45 1.99,-4.52 4.41,-4.52l18.49 0c2.37,0 4.3,1.96 4.41,4.52l6.66 0zm24.18 -4.52l31.45 0 0 -6.97 -38.16 0 0 39.05 38.16 0 0 -6.98 -31.45 0 0 -9.09 28.34 0 0 -6.97 -28.34 0 0 -9.04zm46.77 12.11c0,11.1 8.38,19.97 19.24,19.97l8.28 0c5.75,0 11.13,-3.07 14.3,-6.59l-4.46 -4.85c-2.48,2.57 -6.02,4.52 -9.89,4.52l-8.39 0c-7.31,0 -12.47,-6.25 -12.47,-12.83 0,-8.09 6.66,-12.88 12.42,-12.88l8.44 0c2.84,0 7.31,1.61 9.83,4.51l4.47 -4.79c-3.28,-3.69 -8.44,-6.58 -14.36,-6.58l-8.33 0c-10.38,0 -19.08,8.75 -19.08,19.52zm99.12 -19.08l-6.72 0 0 26.38c0,3.13 -2.42,5.69 -5.43,5.69l-16.4 0c-2.85,0 -5.43,-2.34 -5.43,-5.69l0 -26.38 -6.72 0 0 26.44c0,7.03 5.48,12.61 12.2,12.61l16.35 0c6.72,0 12.15,-5.64 12.15,-12.61l0 -26.44zm26 39.05l0 -12.78 15.38 0 11.88 12.78 9.46 0 -13.01 -13.84 0 -0.05c5.32,-1.56 8.98,-6.14 9.03,-11.99 0.11,-7.2 -5.64,-13.17 -12.74,-13.17l-26.71 0 0 39.05 6.71 0zm0 -32.08l20.06 0c3.44,0 5.96,2.96 5.96,6.2 0,3.29 -2.63,6.13 -5.96,6.13l-20.06 0 0 -12.33zm142.76 -6.97l-9.62 0 21.88 22.03 0 17.02 6.72 0 0 -17.02 21.87 -22.03 -9.67 0 -15.59 15.68 -15.59 -15.68zm71.11 19.08c0,11.1 8.38,19.97 19.24,19.97l8.28 0c5.75,0 11.13,-3.07 14.3,-6.59l-4.46 -4.85c-2.48,2.57 -6.02,4.52 -9.9,4.52l-8.38 0c-7.31,0 -12.47,-6.25 -12.47,-12.83 0,-8.09 6.66,-12.88 12.42,-12.88l8.43 0c2.85,0 7.32,1.61 9.84,4.51l4.46 -4.79c-3.27,-3.69 -8.43,-6.58 -14.35,-6.58l-8.33 0c-10.38,0 -19.08,8.75 -19.08,19.52zm83.1 -19.52l-8.66 0c-10.48,0 -19.03,8.86 -19.03,19.74 0,10.88 8.55,19.75 19.03,19.75l8.66 0c10.48,0 19.03,-8.87 19.03,-19.75 0,-10.88 -8.55,-19.74 -19.03,-19.74zm0 32.63l-8.66 0c-6.83,0 -12.42,-5.81 -12.42,-12.89 0,-7.08 5.59,-12.88 12.42,-12.88l8.66 0c6.82,0 12.41,5.8 12.41,12.88 0,7.08 -5.59,12.89 -12.41,12.89zm41.54 6.86l0 -27.89 26.45 27.89 5.54 0 0 -39.05 -6.72 0 0 27.89 -26.4 -27.89 -5.59 0 0 39.05 6.72 0zm89.61 -27.56c0,-6.36 -5,-11.49 -11.08,-11.49l-18.54 0c-6.08,0 -11.08,5.19 -11.08,11.49 0,3.07 1.19,5.91 3.12,7.98l0.27 0.28c1.99,2.06 4.89,3.23 7.69,3.23l18.54 0c2.37,0 4.36,2.01 4.36,4.52 0,2.57 -1.94,4.57 -4.41,4.57l-18.49 0c-2.48,0 -4.36,-2.12 -4.36,-4.51l-6.72 0c0,6.35 5.06,11.49 11.13,11.49l18.49 0c6.13,0 11.08,-5.19 11.08,-11.49 0,-6.31 -5,-11.55 -11.08,-11.55l-18.54 0c-2.42,0 -4.36,-2.01 -4.36,-4.52 0,-2.45 1.99,-4.52 4.41,-4.52l18.49 0c2.37,0 4.3,1.96 4.41,4.52l6.67 0zm59.07 -11.49l-6.72 0 0 26.38c0,3.13 -2.42,5.69 -5.43,5.69l-16.4 0c-2.85,0 -5.43,-2.34 -5.43,-5.69l0 -26.38 -6.72 0 0 26.44c0,7.03 5.49,12.61 12.21,12.61l16.34 0c6.72,0 12.15,-5.64 12.15,-12.61l0 -26.44zm24.88 0l-6.72 0 0 39.05 36.77 0 0 -6.98 -30.05 0 0 -32.07zm58.64 39.05l0 -32.08 16.99 0 0 -6.97 -40.7 0 0 6.97 16.99 0 0 32.08 6.72 0zm34.83 0l6.66 0 0 -39.05 -6.66 0 0 39.05zm32.19 0l0 -27.89 26.45 27.89 5.53 0 0 -39.05 -6.72 0 0 27.89 -26.39 -27.89 -5.59 0 0 39.05 6.72 0zm74.33 -32.63c3.45,0 7.37,1.5 9.84,4.63l5.11 -4.36c-3.66,-4.46 -8.76,-7.13 -14.89,-7.13l-7.15 0c-10.48,0 -19.03,8.92 -19.03,19.74 0,10.82 8.55,19.75 19.03,19.75l7.15 0c9.78,0 18.33,-7.92 18.76,-18.13 0,-1.51 0,-2.9 -0.16,-4.41l-23.01 0 0 6.86 15.37 0c-1.23,5.36 -5.59,8.82 -10.96,8.82l-7.15 0c-6.67,0 -12.42,-5.69 -12.42,-12.89 0.05,-7.14 5.65,-12.88 12.42,-12.88l7.09 0zm-659.81 32.63l6.67 0 0 -39.05 -6.67 0 0 39.05zm48.75 0l0 -32.08 16.99 0 0 -6.97 -40.7 0 0 6.97 16.99 0 0 32.08 6.72 0z"/>
  <path class="fil3" d="M526.11 201.96c0.21,-17.08 -8.8,-30.74 -25.23,-35.83 -16.95,-5.24 -36.55,1 -45.7,15.46 -9.81,15.5 -9.09,32.17 -2.59,48.59 11.15,28.16 21.67,31.41 47.16,15.58 15.48,-9.61 26.46,-21.92 26.36,-43.8zm83.85 -3.18c0.18,44.2 -21.82,74.94 -58.46,96.74 -6.8,4.04 -13.96,7.58 -21.24,10.66 -6.75,2.85 -6.4,5.54 -1.53,10.12 8.28,7.79 16.04,16.13 24.23,24.03 4,3.86 5.36,7.53 2.13,12.66 -11.96,19.04 -25.23,36.94 -42.09,52.07 -5.59,5.02 -9.39,5.03 -14.59,-0.47 -15.15,-16.03 -30.88,-31.5 -46.1,-47.47 -10.63,-11.16 -12,-11.58 -24.56,-1.8 -16.91,13.16 -26.42,30.43 -23.74,51.98 3.85,30.94 32.91,45.08 61.1,42.91 36.05,-2.76 61.42,-24.11 83.64,-50.15 18.93,-22.19 32.81,-47.58 46.03,-73.41 30.62,-59.88 66.76,-115.93 116.18,-162.31 53.85,-50.53 116.63,-78.52 191.79,-75.03 54.97,2.56 103.72,20.22 145.01,57.34 6.84,6.15 8.89,10.42 1.65,18.22 -15.93,17.16 -31.02,35.12 -46.02,53.12 -5.5,6.6 -9.73,6.66 -16.02,1.04 -20.05,-17.94 -42.57,-31.98 -69.21,-37.55 -52.94,-11.05 -98.52,5 -138.85,39.22 -37.87,32.12 -65.14,72.74 -91.62,113.98 -24.39,37.99 -47.62,76.82 -76.85,111.42 -35.45,41.99 -77.87,73.83 -133.85,81.26 -50.48,6.7 -98.07,-1.82 -136.27,-38.86 -48.94,-47.43 -44.22,-133.81 8.85,-176.6 9.69,-7.81 19.81,-15.08 31.14,-20.22 7.04,-3.2 7.02,-6.11 3.15,-12.25 -13.6,-21.57 -22.82,-44.79 -23.57,-70.72 -1.48,-51.4 22.33,-87.42 68.73,-107.44 40.12,-17.3 81.47,-17.58 121.3,1.52 39.78,19.08 59.6,51.66 59.64,95.99z"/>
  <path class="fil4" d="M279.2 95.91c-0.83,0.07 -1.64,0.14 -2.38,0.13 -23.78,-0.1 -47.55,-0.09 -71.33,-0.04 -14.84,0.03 -14.88,0.08 -14.87,15.01 0.02,86.49 0.02,172.97 0.11,259.45 0.02,11.46 -1.27,22.72 -4.51,33.67 -5.46,18.4 -17.48,30.72 -36.45,34.12 -20.22,3.62 -39.84,0.9 -57.53,-10.74 -9.82,-6.48 -19.15,-13.62 -26.9,-22.45 -5.49,-6.26 -9.38,-7.1 -15.35,-0.12 -14.54,17.01 -29.58,33.61 -44.98,49.86 -7.02,7.4 -6.51,12.48 0.57,19.69 43.88,44.69 97.31,60.46 158.42,53.23 24.59,-2.9 47.94,-9.99 68.27,-24.72 40.33,-29.22 55.46,-71.04 56.3,-118.6 1.05,-59.58 0.04,-119.21 0.5,-178.82 0.09,-10.84 -3.89,-13.42 -13.92,-13.19 -25.44,0.57 -50.91,0.18 -77.48,0.18 1.74,-5.52 5.07,-7.62 7.68,-10.24 25.29,-25.39 50.68,-50.67 75.94,-76.09 2.24,-2.27 6.75,-4.26 4.99,-8.07 -0.91,-1.97 -2.69,-2.41 -4.66,-2.41 -0.79,0 -1.61,0.07 -2.42,0.15z"/>
  <path class="fil5" d="M762.42 268.79c-26.6,30.1 -46.43,65 -69.71,97.42 -13.57,18.9 -11.61,33.86 -0.96,52.27 38,65.62 94.36,103.03 169.48,110.73 74.97,7.69 140.39,-13.13 192.73,-69.46 4.55,-4.89 4.65,-8.31 -0.01,-12.93 -16.65,-16.5 -33.15,-33.15 -49.52,-49.91 -4.02,-4.12 -6.98,-4.07 -11.23,-0.21 -11.5,10.45 -23.78,19.95 -37.36,27.58 -74.77,42.06 -178.65,9.22 -189.07,-101.24 -1.98,-20.88 -0.57,-41.79 6.9,-62 -1.03,-0.39 -2.06,-0.78 -3.09,-1.17 -2.73,2.97 -5.5,5.91 -8.16,8.92z"/>
  <path class="fil3" d="M625.62 530.07c-3.59,0.26 -5.46,-1.94 -7.38,-3.85 -7.09,-7.03 -13.94,-14.3 -21.18,-21.18 -4.73,-4.49 -5.16,-7.86 0.14,-12.55 16.56,-14.65 31.05,-31.25 44.13,-49.04 4.14,-5.62 7.61,-7.01 13.02,-1.35 11.19,11.69 22.8,22.98 34.27,34.39 3.26,3.23 5.72,6.27 0.44,9.93 -20.07,13.96 -40.08,28 -60.14,41.97 -1.11,0.77 -2.42,1.24 -3.3,1.68z"/>
  <path class="fil6" d="M155.44 23.3c0,0 -88.44,63.91 -76.26,144.86l3.77 42.22c0,0 21.86,40.23 107.92,6.52 67.86,-26.57 150.23,-59.89 156.15,-109.13 0,0 -30.7,-98.2 -125.64,-98.21 -19.25,-0.01 -41.12,4.03 -65.94,13.74z"/>
  <g id="_2578757463056">
   <image x="158.53" y="9.56" width="192.04" height="166.86" xlink:href="logo_Images\logo_ImgID1.png"/>
  </g>
  <path class="fil7" d="M347.94 105.12l-0.04 0 -0.03 0c-0.72,0.01 -1.45,0.09 -2.16,0.26 -6.62,37.99 -89.05,82.28 -158.17,104.69 -86.78,28.14 -105.04,-2.22 -105.05,-2.23 -0.29,-0.49 -9.02,9.44 -9.39,9.97 -3.27,4.55 -6.14,9.56 -8.31,14.73 -2.84,6.78 -4.21,13.49 3.14,17.79 6.94,4.05 14.71,6.54 22.61,7.91 17.19,2.99 35.19,1.28 52.41,-0.75 12.23,-1.44 24.6,-3.34 36.16,-7.75 12.1,-4.59 23.34,-11.11 34.48,-17.62 19.64,-11.46 39.19,-23.28 59.21,-33.94 2.01,-1.07 4.03,-2.18 6.14,-3.09 8.93,-3.82 102.71,-51.19 84.03,-81.49 0,0 -7.37,-8.48 -15.03,-8.48z"/>
  <g id="_2578757477312">
   <image x="79.21" y="174.34" width="235.88" height="85.52" xlink:href="logo_Images\logo_ImgID2.png"/>
  </g>
  <g id="_2578757476208">
   <image x="62.51" y="174.34" width="252.58" height="85.52" xlink:href="logo_Images\logo_ImgID3.png"/>
  </g>
  <g id="_2578917931488">
   <image x="304.65" y="103.42" width="62.62" height="70.92" xlink:href="logo_Images\logo_ImgID4.png"/>
  </g>
  <path class="fil8" d="M78.12 157.02c-4.08,34.51 4.37,50.82 4.37,50.82 41.16,50.26 149.55,-14.54 149.55,-14.54 0,0 -18.75,-33.91 -36.79,-46.37 -5.77,-3.99 -12.69,-2.48 -18.45,-0.97 -12.23,3.21 -19.23,6.43 1.18,-43.16 30,-72.92 125.04,-62.26 125.04,-62.26 -23.02,-19.79 -45.99,-27.82 -68,-27.82 -83.95,0.02 -153.67,116.96 -156.9,144.3z"/>
  <g id="_2578917933024">
   <image x="81.29" y="9.56" width="225.44" height="212.75" xlink:href="logo_Images\logo_ImgID5.png"/>
  </g>
  <g id="_2578917932544">
   <image x="148.09" y="34.59" width="156.56" height="162.69" xlink:href="logo_Images\logo_ImgID6.png"/>
  </g>
  <g id="_2578917931296">
   <image x="87.56" y="90.9" width="98.11" height="120.98" xlink:href="logo_Images\logo_ImgID7.png"/>
  </g>
  <path class="fil9" d="M290.49 30.14c0.12,0.04 0.19,0.06 0.19,0.06 -0.02,-0.03 -0.04,-0.06 -0.06,-0.1 -0.04,0.01 -0.08,0.03 -0.13,0.04z"/>
  <path class="fil10" d="M216.22 0l-0.01 0 -0.01 0 -0.01 0 -0.01 0 -0.01 0 -0.01 0 -0.01 0 -0.01 0 -0.01 0c-0.2,0 -0.4,0.01 -0.6,0.02 -19.97,1.23 -42.64,7.1 -66.85,19.26 -68.65,34.48 -54.36,97.19 -45.47,115.15 5.35,10.83 11.18,12.63 18.46,3.48 1.26,-1.58 1.94,-3.54 1.94,-5.57 0,-21.86 3.62,-90.93 48.5,-104.65 16.35,-5 31.31,-8.19 44.96,-9.76 11.34,-1.31 10.15,-17.93 -0.85,-17.93z"/>
  <path class="fil11" d="M290.62 30.1c0.09,-0.03 0.14,-0.04 0.14,-0.04 -0.08,-0.06 -0.17,-0.11 -0.26,-0.16 0.04,0.07 0.08,0.14 0.12,0.2z"/>
  <path class="fil12" d="M172.11 27.69c-47.1,14.41 -48.75,89.77 -48.47,107.54 7.46,-10.97 16.41,-32.81 27.8,-67.42 23.35,-70.95 133.83,-39.21 139.05,-37.67 0.05,-0.01 0.09,-0.03 0.13,-0.04 -0.04,-0.06 -0.08,-0.13 -0.12,-0.2 -14.31,-8.41 -32.14,-13.14 -53.91,-13.14 -18.55,0 -39.95,3.43 -64.48,10.93z"/>
  <path class="fil13" d="M230.74 13.89c-7.6,0.23 -15.16,1.1 -22.64,2.4 -11.67,2.03 -23.53,4.66 -34.2,9.95 -0.44,0.22 -0.87,0.44 -1.31,0.67 -8.17,4.27 -14.74,10.43 -20.32,17.71 -10.03,13.07 -16.45,28.73 -21.01,44.45 -3.69,12.75 -6.32,25.97 -7.35,39.22 -0.18,2.31 -0.31,4.63 -0.27,6.94 -0.02,-1.14 2.51,-3.99 3.11,-5.05 1.22,-2.17 2.36,-4.38 3.45,-6.61 2.37,-4.86 4.46,-9.82 6.49,-14.83 4.27,-10.55 8.2,-21.25 11.78,-32.05 3.28,-9.91 6.58,-19.44 13.2,-27.66 6.71,-8.33 15.46,-14.88 25.22,-19.2 1.48,-0.66 2.99,-1.26 4.51,-1.81 9.24,-3.36 19.01,-5.13 28.79,-5.82 11.99,-0.85 24.26,-0.36 36.18,1.09 5.67,0.69 11.34,1.6 16.95,2.72 2.95,0.6 5.89,1.25 8.82,1.96 2.39,0.59 6.32,0.88 8.38,2.23 -0.05,-0.03 -0.1,-0.06 -0.15,-0.1 -16.69,-10.85 -36.41,-16.26 -56.3,-16.26 -1.11,0 -2.22,0.02 -3.33,0.05z"/>
  <g id="_2578917933840">
   <image x="123.04" y="11.64" width="171.17" height="125.15" xlink:href="logo_Images\logo_ImgID8.png"/>
  </g>
  <g id="_2578917934656">
   <image x="100.08" y="34.59" width="25.05" height="83.43" xlink:href="logo_Images\logo_ImgID9.png"/>
  </g>
  <g id="_2578917937344">
   <image x="231.59" y="61.7" width="56.36" height="50.06" xlink:href="logo_Images\logo_ImgID10.png"/>
  </g>
  <g id="_2578917938256">
   <image x="125.13" y="24.16" width="45.92" height="66.75" xlink:href="logo_Images\logo_ImgID11.png"/>
  </g>
  <g id="_2578917937392">
   <image x="191.93" y="99.25" width="108.54" height="81.35" xlink:href="logo_Images\logo_ImgID12.png"/>
  </g>
  <g id="_2578917939408">
   <image x="143.92" y="109.68" width="20.87" height="50.06" xlink:href="logo_Images\logo_ImgID13.png"/>
  </g>
  <g id="_2578917938928">
   <image x="225.33" y="76.3" width="141.94" height="110.55" xlink:href="logo_Images\logo_ImgID14.png"/>
  </g>
  <g id="_2578917941712">
   <image x="225.33" y="101.33" width="25.05" height="25.03" xlink:href="logo_Images\logo_ImgID15.png"/>
  </g>
  <g id="_2578917942192">
   <image x="75.03" y="153.48" width="133.59" height="70.92" xlink:href="logo_Images\logo_ImgID16.png"/>
  </g>
  <g id="_2578917941808">
   <image x="313" y="65.87" width="31.31" height="68.83" xlink:href="logo_Images\logo_ImgID17.png"/>
  </g>
  <path class="fil14" d="M328.46 68.54l-0.08 0 -0.04 0 -0.03 0c-0.74,0 -1.14,0.14 -1.14,0.14 0,0 -11.36,14.52 -9.82,31.07 1.54,16.55 13.54,31.75 13.54,31.75 14.12,-10.74 17.91,-25.94 17.91,-25.94 0,0 -5.31,-26.28 -11.33,-32.28 -4.04,-4.03 -7.31,-4.72 -9.01,-4.74z"/>
  <path class="fil15" d="M328.46 68.54l-0.03 0 -0.03 0 -0.02 0 -0.04 0 -0.03 0c-0.74,0 -1.14,0.14 -1.14,0.14 0,0 -11.36,14.52 -9.82,31.07 1.54,16.55 13.54,31.75 13.54,31.75 2.36,-1.8 4.42,-3.71 6.23,-5.66 -21.73,-28.96 -10.04,-50.09 -6.56,-56.98 -0.84,-0.24 -1.55,-0.32 -2.1,-0.32z"/>
 </g>
</svg>
